<svg xmlns="http://www.w3.org/2000/svg" viewBox="0 0 400 400" role="img" aria-label="Бджолик — маскот фонду">
  <defs>
    <radialGradient id="bodyGrad" cx="0.4" cy="0.4">
      <stop offset="0%" stop-color="#FFD84A"/>
      <stop offset="100%" stop-color="#F5B800"/>
    </radialGradient>
    <linearGradient id="wingGrad" x1="0" x2="0" y1="0" y2="1">
      <stop offset="0%" stop-color="#FFFFFF" stop-opacity="0.95"/>
      <stop offset="100%" stop-color="#DCEEFF" stop-opacity="0.7"/>
    </linearGradient>
    <filter id="soft" x="-20%" y="-20%" width="140%" height="140%">
      <feGaussianBlur stdDeviation="2"/>
    </filter>
  </defs>

  <ellipse cx="200" cy="370" rx="90" ry="10" fill="#0E3B6B" fill-opacity="0.12"/>

  <g>
    <ellipse cx="140" cy="140" rx="80" ry="50" fill="url(#wingGrad)" stroke="#0E3B6B" stroke-width="2" transform="rotate(-20 140 140)"/>
    <ellipse cx="260" cy="140" rx="80" ry="50" fill="url(#wingGrad)" stroke="#0E3B6B" stroke-width="2" transform="rotate(20 260 140)"/>
  </g>

  <ellipse cx="200" cy="230" rx="110" ry="95" fill="url(#bodyGrad)" stroke="#0E3B6B" stroke-width="4"/>

  <path d="M120 200 Q200 215 280 200" stroke="#0E3B6B" stroke-width="14" fill="none" stroke-linecap="round"/>
  <path d="M105 240 Q200 260 295 240" stroke="#0E3B6B" stroke-width="14" fill="none" stroke-linecap="round"/>
  <path d="M120 280 Q200 295 280 280" stroke="#0E3B6B" stroke-width="14" fill="none" stroke-linecap="round"/>

  <circle cx="170" cy="200" r="14" fill="#FFFFFF"/>
  <circle cx="230" cy="200" r="14" fill="#FFFFFF"/>
  <circle cx="173" cy="203" r="7" fill="#0E3B6B"/>
  <circle cx="233" cy="203" r="7" fill="#0E3B6B"/>
  <circle cx="175" cy="201" r="2" fill="#FFFFFF"/>
  <circle cx="235" cy="201" r="2" fill="#FFFFFF"/>

  <path d="M175 250 Q200 270 225 250" stroke="#0E3B6B" stroke-width="4" fill="none" stroke-linecap="round"/>

  <ellipse cx="155" cy="245" rx="10" ry="6" fill="#FF8FA3" fill-opacity="0.6"/>
  <ellipse cx="245" cy="245" rx="10" ry="6" fill="#FF8FA3" fill-opacity="0.6"/>

  <g stroke="#0E3B6B" stroke-width="3" stroke-linecap="round" fill="none">
    <path d="M160 130 Q150 110 145 90"/>
    <path d="M240 130 Q250 110 255 90"/>
    <circle cx="145" cy="88" r="6" fill="#0E3B6B"/>
    <circle cx="255" cy="88" r="6" fill="#0E3B6B"/>
  </g>

  <g>
    <circle cx="80" cy="80" r="8" fill="#F5B800" opacity="0.6"/>
    <circle cx="340" cy="100" r="6" fill="#F5B800" opacity="0.5"/>
    <circle cx="350" cy="280" r="10" fill="#F5B800" opacity="0.5"/>
    <circle cx="60" cy="300" r="7" fill="#F5B800" opacity="0.6"/>
  </g>
</svg>
